<svg width="193" height="98" viewBox="0 0 193 98" fill="none" xmlns="http://www.w3.org/2000/svg">
<path fill-rule="evenodd" clip-rule="evenodd" d="M104.75 7.5H104.748H88.2298H88.2269C85.5866 7.50075 83.031 8.43199 81.0092 10.1301C78.9874 11.8282 77.6287 14.1845 77.1719 16.785L74.1025 32.5519C74.1016 32.5606 74.1016 32.5694 74.1025 32.5781C73.9314 33.5486 73.9749 34.5447 74.2299 35.4966C74.4849 36.4485 74.9452 37.333 75.5785 38.088C76.2118 38.8429 77.0027 39.4501 77.8957 39.8668C78.7887 40.2835 79.7621 40.4996 80.7475 40.5H80.7487H80.7504C82.5405 40.4988 84.2571 39.7881 85.5242 38.5238L85.5898 38.4544L93.0279 30H99.9625L107.408 38.4544C107.429 38.4787 107.451 38.5013 107.474 38.5238C108.171 39.2205 109.012 39.7562 109.938 40.0932C110.678 40.3625 111.459 40.4997 112.243 40.5C112.441 40.5001 112.64 40.4916 112.838 40.4742C113.819 40.3883 114.77 40.0884 115.624 39.5956C116.477 39.1028 117.213 38.4291 117.778 37.6219C118.287 36.8957 118.646 36.0758 118.836 35.2097C119.025 34.3436 119.041 33.4485 118.882 32.5763C118.883 32.5675 118.883 32.5587 118.882 32.55L115.813 16.7681V16.7344C115.338 14.1452 113.972 11.8039 111.951 10.117C109.931 8.43011 107.383 7.5042 104.75 7.5ZM104.748 27C106.936 27 109.034 26.1308 110.581 24.5836C112.128 23.0365 112.998 20.938 112.998 18.75C112.998 16.562 112.128 14.4635 110.581 12.9164C109.034 11.3692 106.936 10.5 104.748 10.5H88.2298C86.2928 10.5017 84.4185 11.1865 82.9366 12.4338C81.4547 13.6811 80.4602 15.4111 80.1279 17.3194V17.3438L77.0567 33.1106C76.9209 33.8923 77.0366 34.6969 77.387 35.4087C77.7374 36.1204 78.3046 36.7028 79.0069 37.0718C79.5469 37.3556 80.1453 37.5021 80.7499 37.5023C80.9307 37.5022 81.112 37.4891 81.2925 37.4626C82.0775 37.3475 82.8057 36.9864 83.3725 36.4313L91.2325 27.5081C91.3732 27.3485 91.5463 27.2206 91.7403 27.133C91.9343 27.0454 92.1447 27 92.3575 27H92.3604H104.748ZM115.941 33.1106L114.303 24.6767C113.295 26.3026 111.89 27.6447 110.219 28.5762C108.547 29.5083 106.665 29.9984 104.75 30H104.748H103.963L109.625 36.4331C110.052 36.8484 110.572 37.1565 111.141 37.3322C111.503 37.4439 111.878 37.5 112.254 37.4998C112.469 37.4995 112.684 37.4808 112.896 37.4437C113.874 37.2712 114.743 36.7183 115.313 35.906C115.884 35.0938 116.109 34.0886 115.939 33.1106H115.941ZM89.5543 18.6751L86.4043 23.4901L86.6593 24.0001H88.9393L90.9793 20.7901L93.0193 24.0001H95.2993L95.5543 23.4901L92.4043 18.6751L95.3593 14.1601L95.1193 13.6501H92.8243L90.9793 16.5751L89.1343 13.6501H86.8393L86.5993 14.1601L89.5543 18.6751ZM98.5552 13.6501V24.0001H102.425C105.405 24.0001 106.895 22.5101 106.895 19.5301V18.1201C106.895 15.1401 105.405 13.6501 102.425 13.6501H98.5552ZM102.575 21.6451H101.165V16.0051H102.575C103.715 16.0051 104.285 16.5801 104.285 17.7301V19.9201C104.285 21.0701 103.715 21.6451 102.575 21.6451Z" fill="#F0ECF0"/>
<g filter="url(#filter0_d_216_4054)">
<path d="M7.44 88C6.48 88 5.6 87.7733 4.8 87.32C4.02667 86.84 3.4 86.2133 2.92 85.44C2.46667 84.64 2.24 83.76 2.24 82.8V64.4C2.24 63.44 2.46667 62.5733 2.92 61.8C3.4 61 4.02667 60.3733 4.8 59.92C5.6 59.44 6.48 59.2 7.44 59.2H25.8C26.76 59.2 27.64 59.44 28.44 59.92C29.24 60.3733 29.8667 61 30.32 61.8C30.8 62.5733 31.04 63.44 31.04 64.4V66.12H26.68V64.52C26.68 64.2533 26.5867 64.0267 26.4 63.84C26.2133 63.6267 25.9867 63.52 25.72 63.52H7.56C7.29333 63.52 7.05333 63.6267 6.84 63.84C6.65333 64.0267 6.56 64.2533 6.56 64.52V82.68C6.56 82.9467 6.65333 83.1867 6.84 83.4C7.05333 83.5867 7.29333 83.68 7.56 83.68H25.72C25.9867 83.68 26.2133 83.5867 26.4 83.4C26.5867 83.1867 26.68 82.9467 26.68 82.68V76.56H19.88V72.2H31.04V82.8C31.04 83.76 30.8 84.64 30.32 85.44C29.8667 86.2133 29.24 86.84 28.44 87.32C27.64 87.7733 26.76 88 25.8 88H7.44ZM40.4831 88C39.5231 88 38.6431 87.76 37.8431 87.28C37.0698 86.8 36.4431 86.1733 35.9631 85.4C35.5098 84.6267 35.2831 83.76 35.2831 82.8V74.24H54.5231V70.12C54.5231 69.8533 54.4298 69.6267 54.2431 69.44C54.0565 69.2267 53.8298 69.12 53.5631 69.12H35.2831V64.8H53.6831C54.6431 64.8 55.5098 65.04 56.2831 65.52C57.0831 65.9733 57.7098 66.6 58.1631 67.4C58.6431 68.2 58.8831 69.0667 58.8831 70V88H40.4831ZM40.6031 83.68H54.5231V78.28H39.6031V82.68C39.6031 82.9467 39.6965 83.1867 39.8831 83.4C40.0965 83.5867 40.3365 83.68 40.6031 83.68ZM62.2381 88V64.8H91.8781C92.8648 64.8 93.7448 65.04 94.5181 65.52C95.2915 66 95.9048 66.6267 96.3581 67.4C96.8381 68.1733 97.0781 69.04 97.0781 70V88H92.7981V70.12C92.7981 69.8533 92.6915 69.6267 92.4781 69.44C92.2915 69.2267 92.0648 69.12 91.7981 69.12H82.8781C82.5848 69.12 82.3448 69.2267 82.1581 69.44C81.9715 69.6267 81.8781 69.8533 81.8781 70.12V88H77.5181V70.12C77.5181 69.8533 77.4115 69.6267 77.1981 69.44C77.0115 69.2267 76.7848 69.12 76.5181 69.12H67.5581C67.2915 69.12 67.0648 69.2267 66.8781 69.44C66.6915 69.6267 66.5981 69.8533 66.5981 70.12V88H62.2381ZM105.834 88C104.874 88 104.007 87.76 103.234 87.28C102.46 86.8 101.834 86.1733 101.354 85.4C100.874 84.6267 100.634 83.76 100.634 82.8V70C100.634 69.04 100.874 68.1733 101.354 67.4C101.834 66.6267 102.46 66 103.234 65.52C104.007 65.04 104.874 64.8 105.834 64.8H119.034C119.994 64.8 120.86 65.04 121.634 65.52C122.434 65.9733 123.06 66.6 123.514 67.4C123.994 68.2 124.234 69.0667 124.234 70V78.56H104.954V82.68C104.954 82.9467 105.047 83.1867 105.234 83.4C105.447 83.5867 105.687 83.68 105.954 83.68H124.234V88H105.834ZM104.954 74.52H119.874V70.12C119.874 69.8533 119.78 69.6267 119.594 69.44C119.407 69.2267 119.18 69.12 118.914 69.12H105.954C105.687 69.12 105.447 69.2267 105.234 69.44C105.047 69.6267 104.954 69.8533 104.954 70.12V74.52ZM128.129 88V87.2L139.569 73.6L128.129 60V59.2H133.129L142.409 70.2L151.649 59.2H156.649V60L145.209 73.6L156.689 87.2V88H151.649L142.369 77L133.129 88H128.129ZM161.07 88V59.2H184.63C185.59 59.2 186.47 59.44 187.27 59.92C188.07 60.3733 188.697 61 189.15 61.8C189.63 62.5733 189.87 63.44 189.87 64.4V82.8C189.87 83.76 189.63 84.64 189.15 85.44C188.697 86.2133 188.07 86.84 187.27 87.32C186.47 87.7733 185.59 88 184.63 88H161.07ZM166.35 83.68H184.55C184.817 83.68 185.043 83.5867 185.23 83.4C185.417 83.1867 185.51 82.9467 185.51 82.68V64.52C185.51 64.2533 185.417 64.0267 185.23 63.84C185.043 63.6267 184.817 63.52 184.55 63.52H166.35C166.083 63.52 165.857 63.6267 165.67 63.84C165.483 64.0267 165.39 64.2533 165.39 64.52V82.68C165.39 82.9467 165.483 83.1867 165.67 83.4C165.857 83.5867 166.083 83.68 166.35 83.68Z" fill="#F0ECF0"/>
</g>
<defs>
<filter id="filter0_d_216_4054" x="1.23999" y="59.2" width="188.63" height="30.8" filterUnits="userSpaceOnUse" color-interpolation-filters="sRGB">
<feFlood flood-opacity="0" result="BackgroundImageFix"/>
<feColorMatrix in="SourceAlpha" type="matrix" values="0 0 0 0 0 0 0 0 0 0 0 0 0 0 0 0 0 0 127 0" result="hardAlpha"/>
<feOffset dx="-1" dy="2"/>
<feComposite in2="hardAlpha" operator="out"/>
<feColorMatrix type="matrix" values="0 0 0 0 0.678431 0 0 0 0 0.517647 0 0 0 0 0.776471 0 0 0 0.2 0"/>
<feBlend mode="normal" in2="BackgroundImageFix" result="effect1_dropShadow_216_4054"/>
<feBlend mode="normal" in="SourceGraphic" in2="effect1_dropShadow_216_4054" result="shape"/>
</filter>
</defs>
</svg>
